<svg width="15" height="21" viewBox="0 0 15 21" fill="none" xmlns="http://www.w3.org/2000/svg">
<path d="M10 0.656128C10 1.87976 10.2148 3.00769 10.6445 4.03992C11.0742 5.07214 11.6927 6.02234 12.5 6.8905C13.3073 7.75867 13.9258 8.70886 14.3555 9.74109C14.7852 10.7733 15 11.9012 15 13.1249C15 13.8495 14.9121 14.5468 14.7363 15.2167C14.5605 15.8866 14.3066 16.5121 13.9746 17.0931C13.6426 17.6742 13.252 18.2074 12.8027 18.6927C12.3535 19.1781 11.849 19.5883 11.2891 19.9232C10.7292 20.2582 10.1302 20.5214 9.49219 20.7128C8.85417 20.9042 8.1901 20.9999 7.5 20.9999C6.8099 20.9999 6.14583 20.9076 5.50781 20.723C4.86979 20.5385 4.27409 20.2719 3.7207 19.9232C3.16732 19.5746 2.65951 19.1644 2.19727 18.6927C1.73503 18.2211 1.3444 17.6913 1.02539 17.1034C0.70638 16.5155 0.455729 15.8866 0.273438 15.2167C0.0911458 14.5468 0 13.8495 0 13.1249C0 12.5507 0.0585938 11.9867 0.175781 11.433C0.292969 10.8793 0.46224 10.3495 0.683594 9.84363C0.904948 9.33777 1.17839 8.85583 1.50391 8.39783C1.82943 7.93982 2.19727 7.52625 2.60742 7.1571C2.65299 7.41687 2.71484 7.68347 2.79297 7.95691C2.87109 8.23035 2.96224 8.50378 3.06641 8.77722C3.17057 9.05066 3.29427 9.31042 3.4375 9.55652C3.58073 9.80261 3.73047 10.0316 3.88672 10.2435C4.01693 10.4144 4.1862 10.4999 4.39453 10.4999C4.57031 10.4999 4.7168 10.4349 4.83398 10.3051C4.95117 10.1752 5.01302 10.0179 5.01953 9.83337C5.01953 9.75818 5.00977 9.68982 4.99023 9.6283C4.9707 9.56677 4.93815 9.50525 4.89258 9.44373C4.71029 9.16345 4.55078 8.8866 4.41406 8.61316C4.27734 8.33972 4.1569 8.05945 4.05273 7.77234C3.94857 7.48523 3.8737 7.18787 3.82812 6.88025C3.78255 6.57263 3.75651 6.24792 3.75 5.90613C3.75 5.09265 3.89648 4.32703 4.18945 3.60925C4.48242 2.89148 4.88607 2.26599 5.40039 1.73279C5.91471 1.19958 6.51042 0.779175 7.1875 0.471558C7.86458 0.16394 8.59375 0.00671387 9.375 -0.00012207H10V0.656128ZM7.5 19.6874C8.36589 19.6874 9.17643 19.5165 9.93164 19.1747C10.6868 18.8329 11.3509 18.3646 11.9238 17.7699C12.4967 17.1752 12.9427 16.4813 13.2617 15.6884C13.5807 14.8954 13.7435 14.0409 13.75 13.1249C13.75 12.0927 13.5677 11.1322 13.2031 10.2435C12.8385 9.35486 12.3112 8.54822 11.6211 7.82361C10.7747 6.9281 10.1107 5.94031 9.62891 4.86023C9.14714 3.78015 8.86068 2.61121 8.76953 1.35339C8.22917 1.42859 7.73112 1.59949 7.27539 1.86609C6.81966 2.13269 6.41927 2.47107 6.07422 2.88123C5.72917 3.29138 5.46549 3.75281 5.2832 4.2655C5.10091 4.7782 5.00651 5.32507 5 5.90613C5 6.43933 5.07487 6.92126 5.22461 7.35193C5.37435 7.78259 5.5957 8.21326 5.88867 8.64392C6.01237 8.82166 6.10677 9.00623 6.17188 9.19763C6.23698 9.38904 6.27279 9.60095 6.2793 9.83337C6.2793 10.1068 6.23047 10.3632 6.13281 10.6024C6.03516 10.8417 5.89844 11.0502 5.72266 11.2279C5.54688 11.4056 5.34831 11.5492 5.12695 11.6586C4.9056 11.7679 4.66146 11.8192 4.39453 11.8124C4.09505 11.8124 3.83138 11.7543 3.60352 11.6381C3.37565 11.5219 3.17383 11.3646 2.99805 11.1664C2.82227 10.9681 2.66602 10.746 2.5293 10.4999C2.39258 10.2538 2.26237 10.0077 2.13867 9.7616C1.83919 10.2606 1.61784 10.7972 1.47461 11.3715C1.33138 11.9457 1.25651 12.5302 1.25 13.1249C1.25 14.0341 1.41276 14.8851 1.73828 15.6781C2.0638 16.4711 2.50977 17.1683 3.07617 17.7699C3.64258 18.3715 4.30339 18.8397 5.05859 19.1747C5.8138 19.5096 6.6276 19.6805 7.5 19.6874Z" fill="#333333"/>
</svg>
