<svg width="32" height="30" viewBox="0 0 32 30" fill="none" xmlns="http://www.w3.org/2000/svg">
<path d="M6.77035 22.1262L25.6096 22.1363M16.0883 1.12436C19.1403 1.1282 21.687 3.1564 22.3042 5.85868C23.1114 5.65385 23.9536 5.60089 24.7825 5.70285C25.6115 5.8048 26.411 6.05966 27.1355 6.45288C27.8601 6.84609 28.4953 7.36996 29.0051 7.99458C29.5149 8.61919 29.8891 9.33232 30.1066 10.0932C30.324 10.8542 30.3803 11.648 30.2722 12.4294C30.1642 13.2108 29.894 13.9644 29.4769 14.6473C29.0599 15.3302 28.5042 15.929 27.8417 16.4094C27.1791 16.8898 26.4227 17.2425 25.6155 17.4474L25.602 28.1363L6.50663 28.1123L6.52006 17.4233C5.71338 17.2163 4.95785 16.8615 4.29658 16.3792C3.63532 15.8969 3.08129 15.2966 2.66612 14.6125C2.25095 13.9285 1.98277 13.174 1.8769 12.3923C1.77102 11.6106 1.82952 10.8168 2.04906 10.0565C2.2686 9.29609 2.64488 8.58395 3.15641 7.96069C3.66794 7.33744 4.30471 6.81528 5.03035 6.42402C5.756 6.03277 6.55631 5.78009 7.3856 5.6804C8.21489 5.58072 9.05691 5.63598 9.86359 5.84304C10.1737 4.50478 10.9603 3.30691 12.0927 2.4485C13.2251 1.59009 14.635 1.12283 16.0883 1.12436Z" stroke="#333333" stroke-width="2" stroke-linecap="round" stroke-linejoin="round"/>
</svg>
