<svg width="12" height="11" viewBox="0 0 12 11" fill="none" xmlns="http://www.w3.org/2000/svg">
<path d="M12 3.55292C12 7.56428 6.43982 10.8112 6.20304 10.9453C6.14063 10.9812 6.07087 11 6 11C5.92913 11 5.85937 10.9812 5.79696 10.9453C5.56018 10.8112 0 7.56428 0 3.55292C0.000992538 2.61095 0.351247 1.70787 0.97392 1.0418C1.59659 0.375727 2.44084 0.00106171 3.32143 0C4.42768 0 5.39625 0.50887 6 1.36902C6.60375 0.50887 7.57232 0 8.67857 0C9.55916 0.00106171 10.4034 0.375727 11.0261 1.0418C11.6488 1.70787 11.999 2.61095 12 3.55292Z" fill="#FCF6E0"/>
</svg>
