<svg width="20" height="18" viewBox="0 0 20 18" fill="none" xmlns="http://www.w3.org/2000/svg">
<path d="M20 7.71429H17.3333V5.14286H16V7.71429H13.3333V9H16V11.5714H17.3333V9H20V7.71429ZM6.66667 1.28571C7.32594 1.28571 7.9704 1.47423 8.51857 1.82742C9.06673 2.18061 9.49397 2.68261 9.74627 3.26995C9.99856 3.85728 10.0646 4.50357 9.93595 5.12708C9.80733 5.75059 9.48986 6.32332 9.02369 6.77284C8.55751 7.22237 7.96357 7.5285 7.31697 7.65252C6.67036 7.77655 6.00014 7.71289 5.39106 7.46961C4.78197 7.22633 4.26137 6.81435 3.8951 6.28576C3.52883 5.75717 3.33333 5.13573 3.33333 4.5C3.33333 3.64752 3.68452 2.82995 4.30964 2.22716C4.93477 1.62436 5.78261 1.28571 6.66667 1.28571ZM6.66667 0C5.74369 0 4.84144 0.26392 4.07401 0.758387C3.30658 1.25285 2.70844 1.95566 2.35523 2.77792C2.00202 3.60019 1.9096 4.50499 2.08967 5.37791C2.26973 6.25082 2.71419 7.05264 3.36684 7.68198C4.01948 8.31132 4.851 8.7399 5.75625 8.91353C6.66149 9.08717 7.5998 8.99805 8.45252 8.65746C9.30525 8.31686 10.0341 7.74009 10.5469 7.00007C11.0596 6.26004 11.3333 5.39002 11.3333 4.5C11.3333 3.30653 10.8417 2.16193 9.9665 1.31802C9.09133 0.474106 7.90434 0 6.66667 0ZM13.3333 18H12V14.7857C12 13.9332 11.6488 13.1157 11.0237 12.5129C10.3986 11.9101 9.55072 11.5714 8.66667 11.5714H4.66667C3.78261 11.5714 2.93477 11.9101 2.30964 12.5129C1.68452 13.1157 1.33333 13.9332 1.33333 14.7857V18H0V14.7857C0 13.5922 0.491665 12.4476 1.36683 11.6037C2.242 10.7598 3.42899 10.2857 4.66667 10.2857H8.66667C9.90434 10.2857 11.0913 10.7598 11.9665 11.6037C12.8417 12.4476 13.3333 13.5922 13.3333 14.7857V18Z" fill="#FCF6E0"/>
</svg>
