<svg width="32" height="30" viewBox="0 0 32 30" fill="none" xmlns="http://www.w3.org/2000/svg">
<path d="M22.7932 0.529871C19.9132 0.52625 17.39 1.84785 15.8154 4.08516C14.2464 1.8439 11.7266 0.515957 8.84659 0.512336C6.55409 0.512218 4.35499 1.48485 2.73177 3.21684C1.10854 4.94882 0.193745 7.29873 0.188078 9.75101C0.174949 20.194 14.6395 28.6651 15.2555 29.015C15.4178 29.1087 15.5994 29.1579 15.7839 29.1581C15.9684 29.1583 16.15 29.1096 16.3126 29.0163C16.9295 28.668 31.4153 20.2333 31.4284 9.79029C31.4289 7.338 30.5201 4.9858 28.9012 3.24974C27.2823 1.51367 25.0857 0.535517 22.7932 0.529871ZM15.7871 26.5989C13.2425 25.0083 2.40946 17.7636 2.41953 9.75382C2.42403 7.93448 3.10285 6.19119 4.30711 4.90623C5.51138 3.62128 7.14279 2.89955 8.84359 2.89932C11.5562 2.90273 13.8317 4.45116 14.7798 6.93481C14.8636 7.15382 15.0063 7.34123 15.1899 7.47322C15.3735 7.60521 15.5897 7.67584 15.8109 7.67612C16.0321 7.67639 16.2484 7.60631 16.4324 7.47478C16.6163 7.34325 16.7595 7.1562 16.8439 6.93741C17.7982 4.45167 20.0776 2.91344 22.7902 2.91685C24.491 2.92136 26.1206 3.64719 27.3216 4.93517C28.5226 6.22315 29.1971 7.96814 29.197 9.78748C29.1869 17.7854 18.333 25.0132 15.7871 26.5989Z" fill="#333333"/>
</svg>
