<svg width="29" height="28" viewBox="0 0 29 28" fill="none" xmlns="http://www.w3.org/2000/svg">
<path d="M27.9264 13.3183L15.7949 1.12512L14.9817 0.307397C14.7965 0.122308 14.5457 0.0182446 14.2842 0.0179159C14.0227 0.0175871 13.7717 0.12102 13.586 0.305642L0.608605 13.284C0.418277 13.4737 0.267761 13.6997 0.165943 13.9487C0.0641255 14.1977 0.0130685 14.4646 0.015786 14.7337C0.0269649 15.8437 0.946924 16.7309 2.05347 16.7323L3.3895 16.734L3.37659 27.0042L25.124 27.0316L25.1369 16.7614L26.5012 16.7631C27.0388 16.7637 27.5451 16.5531 27.926 16.172C28.1135 15.985 28.2622 15.7625 28.3634 15.5175C28.4646 15.2724 28.5164 15.0096 28.5156 14.7444C28.5163 14.2083 28.3063 13.7004 27.9264 13.3183ZM16.0135 24.7498L12.4927 24.7453L12.5008 18.3126L16.0216 18.3171L16.0135 24.7498ZM22.8764 14.4882L22.8634 24.7584L18.0254 24.7523L18.0345 17.5628C18.0354 16.8659 17.4734 16.3008 16.7786 16.2999L11.7489 16.2936C11.0541 16.2927 10.4907 16.8565 10.4899 17.5533L10.4808 24.7428L5.64283 24.7367L5.65574 14.4665L2.63789 14.4627L14.2838 2.81968L15.0091 3.549L25.8973 14.492L22.8764 14.4882Z" fill="#333333"/>
</svg>
