<svg width="51" height="51" viewBox="0 0 51 51" fill="none" xmlns="http://www.w3.org/2000/svg">
<g filter="url(#filter0_d_254_674)">
<path d="M25.5 0.5C13.356 0.5 3.5 10.356 3.5 22.5C3.5 34.644 13.356 44.5 25.5 44.5C37.644 44.5 47.5 34.644 47.5 22.5C47.5 10.356 37.644 0.5 25.5 0.5ZM20 28.374V16.626C20 14.888 21.936 13.832 23.388 14.778L32.518 20.652C32.8268 20.8514 33.0806 21.1251 33.2564 21.4479C33.4322 21.7707 33.5243 22.1324 33.5243 22.5C33.5243 22.8676 33.4322 23.2293 33.2564 23.5521C33.0806 23.8749 32.8268 24.1486 32.518 24.348L23.388 30.222C21.936 31.168 20 30.112 20 28.374Z" fill="#FCF6E0"/>
</g>
<defs>
<filter id="filter0_d_254_674" x="0.3" y="0.5" width="50.4" height="50.4" filterUnits="userSpaceOnUse" color-interpolation-filters="sRGB">
<feFlood flood-opacity="0" result="BackgroundImageFix"/>
<feColorMatrix in="SourceAlpha" type="matrix" values="0 0 0 0 0 0 0 0 0 0 0 0 0 0 0 0 0 0 127 0" result="hardAlpha"/>
<feOffset dy="3.2"/>
<feGaussianBlur stdDeviation="1.6"/>
<feComposite in2="hardAlpha" operator="out"/>
<feColorMatrix type="matrix" values="0 0 0 0 0 0 0 0 0 0 0 0 0 0 0 0 0 0 0.25 0"/>
<feBlend mode="normal" in2="BackgroundImageFix" result="effect1_dropShadow_254_674"/>
<feBlend mode="normal" in="SourceGraphic" in2="effect1_dropShadow_254_674" result="shape"/>
</filter>
</defs>
</svg>
