<svg width="30" height="28" viewBox="0 0 30 28" fill="none" xmlns="http://www.w3.org/2000/svg">
<path d="M7.6268 13.7222C7.62718 13.4234 7.74623 13.137 7.95777 12.926C8.16931 12.715 8.45601 12.5966 8.75479 12.597L14.0016 12.6036L14.0082 7.35676C14.0086 7.05797 14.1277 6.77157 14.3392 6.56056C14.5507 6.34955 14.8374 6.23122 15.1362 6.2316C15.435 6.23197 15.7214 6.35103 15.9324 6.56257C16.1434 6.77411 16.2618 7.0608 16.2614 7.35959L16.2548 12.6064L21.5016 12.613C21.8004 12.6134 22.0868 12.7325 22.2978 12.944C22.5088 13.1555 22.6272 13.4422 22.6268 13.741C22.6264 14.0398 22.5074 14.3262 22.2958 14.5372C22.0843 14.7482 21.7976 14.8666 21.4988 14.8662L16.252 14.8596L16.2454 20.1064C16.245 20.4052 16.1259 20.6916 15.9144 20.9026C15.7029 21.1136 15.4162 21.232 15.1174 21.2316C14.8186 21.2312 14.5322 21.1122 14.3212 20.9006C14.1102 20.6891 13.9918 20.4024 13.9922 20.1036L13.9988 14.8568L8.75196 14.8502C8.45317 14.8498 8.16677 14.7307 7.95577 14.5192C7.74476 14.3076 7.62643 14.0209 7.6268 13.7222Z" fill="#333333"/>
<path fill-rule="evenodd" clip-rule="evenodd" d="M7.01959 0.632871C12.2529 0.090816 17.5336 0.0974551 22.7655 0.652668C25.8366 0.9809 28.3134 3.2721 28.6695 6.19348C29.2853 11.214 29.2789 16.2847 28.6505 21.3037C28.2854 24.2242 25.8028 26.5076 22.7326 26.8297C17.4993 27.3718 12.2186 27.3651 6.98668 26.8099C3.91559 26.4801 1.43873 24.1904 1.08263 21.2691C0.468212 16.2486 0.474588 11.1777 1.10163 6.15882C1.46507 3.23835 3.94936 0.953382 7.01959 0.632871ZM22.4834 3.02149C17.437 2.48603 12.3435 2.47963 7.29569 3.0024C6.36124 3.09926 5.48865 3.49125 4.81889 4.11505C4.14913 4.73885 3.72131 5.55802 3.60455 6.44022C3.00055 11.2748 2.99441 16.1595 3.58625 20.9955C3.70114 21.8778 4.12705 22.6976 4.79521 23.3228C5.46338 23.948 6.33479 24.3419 7.26874 24.4411C12.2729 24.9752 17.451 24.9818 22.4565 24.4602C23.3904 24.363 24.2624 23.9711 24.9318 23.3477C25.6012 22.7242 26.0289 21.9056 26.1459 21.0239C26.7499 16.1894 26.7561 11.3046 26.1642 6.46859C26.0491 5.5869 25.6232 4.76758 24.9554 4.14276C24.2876 3.51795 23.4168 3.12407 22.4834 3.02467" fill="#333333"/>
</svg>
