<svg width="28" height="28" viewBox="0 0 28 28" fill="none" xmlns="http://www.w3.org/2000/svg">
<path d="M27.0433 22.4154L22.3134 17.6788L18.6753 16.1736C19.8866 14.4484 20.5356 12.3903 20.5333 10.2813C20.5333 4.61218 15.9277 0 10.2666 0C4.60558 0 0 4.61218 0 10.2813C0 15.9505 4.60558 20.5627 10.2666 20.5627C12.3909 20.5651 14.4631 19.904 16.1944 18.6713L17.6936 22.3049L22.4233 27.0418C22.7266 27.3455 23.0867 27.5865 23.4831 27.7509C23.8794 27.9154 24.3042 28 24.7332 28C25.1622 28 25.587 27.9154 25.9833 27.751C26.3796 27.5866 26.7398 27.3457 27.0431 27.0419C27.3465 26.7381 27.5871 26.3775 27.7513 25.9806C27.9155 25.5837 28 25.1583 28 24.7287C28 24.2991 27.9155 23.8737 27.7514 23.4768C27.5872 23.0799 27.3466 22.7192 27.0433 22.4154ZM1.86666 10.2813C1.86666 5.64306 5.63499 1.86934 10.2666 1.86934C14.8983 1.86934 18.6666 5.64306 18.6666 10.2813C18.6666 14.9196 14.8983 18.6934 10.2666 18.6934C5.63499 18.6934 1.86666 14.9196 1.86666 10.2813ZM25.7232 25.72C25.4605 25.9825 25.1045 26.1299 24.7333 26.1299C24.3621 26.1299 24.0061 25.9825 23.7433 25.72L19.2766 21.2469L17.8828 17.8683L21.2566 19.2642L25.7234 23.7372C25.9855 24.0004 26.1327 24.3569 26.1327 24.7286C26.1327 25.1003 25.9854 25.4568 25.7232 25.72Z" fill="#333333"/>
</svg>
