<svg width="22" height="23" viewBox="0 0 22 23" fill="none" xmlns="http://www.w3.org/2000/svg">
<g clip-path="url(#clip0_237_719)">
<path d="M10.9685 5.54463C13.6698 5.54463 16.2604 6.61772 18.1705 8.52783C20.0807 10.4379 21.1537 13.0286 21.1537 15.7299C21.1537 16.1455 20.9886 16.544 20.6948 16.8379C20.4009 17.1318 20.0024 17.2969 19.5868 17.2969H2.35017C1.93458 17.2969 1.53602 17.1318 1.24216 16.8379C0.948294 16.544 0.783203 16.1455 0.783203 15.7299C0.783203 13.0286 1.85629 10.4379 3.7664 8.52783C5.67651 6.61772 8.26717 5.54463 10.9685 5.54463ZM10.9685 5.54463V3.19418M0.783203 20.4308H21.1537" stroke="#333333" stroke-width="2" stroke-linecap="round" stroke-linejoin="round"/>
</g>
<defs>
<clipPath id="clip0_237_719">
<rect width="21.9375" height="21.9375" fill="white" transform="translate(0 0.84375)"/>
</clipPath>
</defs>
</svg>
