<svg width="21" height="21" viewBox="0 0 21 21" fill="none" xmlns="http://www.w3.org/2000/svg">
<path d="M10.2632 20.5263C15.8678 20.5263 20.5263 15.8777 20.5263 10.2632C20.5263 4.65848 15.8777 0 10.273 0C9.73983 0 9.47838 0.321985 9.47838 0.844888V4.74906C9.47838 5.18181 9.77031 5.53385 10.2125 5.53385C10.6556 5.53385 10.9574 5.18181 10.9574 4.74906V1.74044C15.3849 2.09247 18.8056 5.75537 18.8056 10.2632C18.8103 11.3868 18.5926 12.5002 18.165 13.5393C17.7375 14.5784 17.1086 15.5226 16.3146 16.3176C15.5206 17.1126 14.5771 17.7426 13.5385 18.1714C12.4999 18.6002 11.3868 18.8192 10.2632 18.8159C5.51367 18.8159 1.70051 15.0122 1.71038 10.2632C1.72026 8.15008 2.47499 6.22847 3.73288 4.74906C4.04456 4.35667 4.06474 3.884 3.73288 3.53153C3.40059 3.16962 2.83733 3.19967 2.47499 3.6526C0.935473 5.44326 0 7.75769 0 10.2632C0 15.8777 4.6486 20.5263 10.2632 20.5263ZM11.8731 11.8125C12.6677 10.9874 12.5072 9.86046 11.5511 9.19674L6.22762 5.48362C5.72489 5.13158 5.20156 5.65491 5.55359 6.15764L9.26672 11.4807C9.93087 12.4368 11.0578 12.6076 11.8731 11.8125Z" fill="#333333"/>
</svg>
